<?xml version="1.0" encoding="UTF-8" standalone="no"?>
<svg
   height="100%"
   style="fill-rule:evenodd;clip-rule:evenodd;stroke-linejoin:round;stroke-miterlimit:2;"
   version="1.1"
   viewBox="0 0 512 512"
   width="100%"
   xml:space="preserve"
   id="svg4"
   sodipodi:docname="facebook.svg"
   inkscape:version="1.1 (c68e22c387, 2021-05-23)"
   xmlns:inkscape="http://www.inkscape.org/namespaces/inkscape"
   xmlns:sodipodi="http://sodipodi.sourceforge.net/DTD/sodipodi-0.dtd"
   xmlns="http://www.w3.org/2000/svg"
   xmlns:svg="http://www.w3.org/2000/svg"><defs
     id="defs8" /><sodipodi:namedview
     id="namedview6"
     pagecolor="#ffffff"
     bordercolor="#999999"
     borderopacity="1"
     inkscape:pageshadow="0"
     inkscape:pageopacity="0"
     inkscape:pagecheckerboard="0"
     showgrid="false"
     inkscape:zoom="1.7050781"
     inkscape:cx="256"
     inkscape:cy="256"
     inkscape:window-width="2560"
     inkscape:window-height="1377"
     inkscape:window-x="-8"
     inkscape:window-y="32"
     inkscape:window-maximized="1"
     inkscape:current-layer="svg4" /><path
     d="M512,257.555c0,-141.385 -114.615,-256 -256,-256c-141.385,0 -256,114.615 -256,256c0,127.777 93.616,233.685 216,252.89l0,-178.89l-65,0l0,-74l65,0l0,-56.4c0,-64.16 38.219,-99.6 96.695,-99.6c28.009,0 57.305,5 57.305,5l0,63l-32.281,0c-31.801,0 -41.719,19.733 -41.719,39.978l0,48.022l71,0l-11.35,74l-59.65,0l0,178.89c122.385,-19.205 216,-125.113 216,-252.89Z"
     style="fill-rule:nonzero;"
     id="path2" /><path
     style="fill:#ffffff;stroke:#ffffff;stroke-width:0.586483"
     d="M 208.43211,508.79665 C 124.72914,492.90525 54.260965,436.03476 20.514923,357.14034 5.8554302,322.86811 -0.7329442,286.07696 0.68549012,246.40777 3.1354015,177.89139 34.874283,111.61154 87.245275,65.646235 124.51187,32.937848 169.35412,12.054505 218.12497,4.6946587 231.5252,2.6724751 239.98138,2.0912167 256,2.0912167 c 16.01862,0 24.4748,0.5812584 37.87503,2.603442 C 372.34481,16.53627 440.5951,63.877994 479.45934,133.42497 c 29.35237,52.52562 39.01103,114.22784 27.25642,174.12151 -12.39186,63.14065 -49.49674,120.44198 -102.48811,158.27313 -29.70016,21.20328 -66.01535,36.69007 -100.7225,42.95358 -2.90309,0.52392 -5.7402,1.08619 -6.30469,1.24949 -0.97427,0.28185 -1.02635,-4.22787 -1.02635,-88.88808 v -89.185 h 29.91066 c 16.45085,0 29.91065,-0.11481 29.91065,-0.25513 0,-0.14031 2.50721,-16.6385 5.57159,-36.66264 3.06438,-20.02413 5.57159,-36.66809 5.57159,-36.98657 0,-0.37471 -12.53576,-0.57905 -35.52274,-0.57905 h -35.52274 l 0.2206,-28.00458 c 0.20908,-26.54141 0.28695,-28.24361 1.49029,-32.57944 3.57963,-12.89799 11.2214,-20.73932 24.46861,-25.10762 3.93595,-1.29788 5.00706,-1.36238 25.95189,-1.56256 l 21.84651,-0.2088 v -31.85959 -31.85959 l -1.90607,-0.35093 c -2.79348,-0.51431 -19.70258,-2.60301 -26.83162,-3.31439 -10.36769,-1.03455 -35.91325,-1.4033 -42.81328,-0.61802 -29.13085,3.31534 -51.45176,15.69611 -65.64137,36.40939 -8.88214,12.9657 -14.59393,29.64323 -16.44168,48.00716 -0.34338,3.41271 -0.61111,20.30665 -0.61111,38.56128 v 32.48769 h -32.54983 -32.54983 v 37.24169 37.2417 h 32.54983 32.54983 v 89.14547 c 0,49.03002 -0.066,89.12391 -0.14662,89.09756 -0.0806,-0.0263 -3.34187,-0.65455 -7.24716,-1.39598 z"
     id="path899" /></svg>
