<?xml version="1.0" encoding="UTF-8" standalone="no"?>
<svg
   height="100%"
   style="fill-rule:evenodd;clip-rule:evenodd;stroke-linejoin:round;stroke-miterlimit:2;"
   version="1.1"
   viewBox="0 0 512 512"
   width="100%"
   xml:space="preserve"
   id="svg4"
   sodipodi:docname="instagram.svg"
   inkscape:version="1.1 (c68e22c387, 2021-05-23)"
   xmlns:inkscape="http://www.inkscape.org/namespaces/inkscape"
   xmlns:sodipodi="http://sodipodi.sourceforge.net/DTD/sodipodi-0.dtd"
   xmlns="http://www.w3.org/2000/svg"
   xmlns:svg="http://www.w3.org/2000/svg"><defs
     id="defs8" /><sodipodi:namedview
     id="namedview6"
     pagecolor="#ffffff"
     bordercolor="#999999"
     borderopacity="1"
     inkscape:pageshadow="0"
     inkscape:pageopacity="0"
     inkscape:pagecheckerboard="0"
     showgrid="false"
     inkscape:zoom="1.7050781"
     inkscape:cx="256"
     inkscape:cy="256"
     inkscape:window-width="2560"
     inkscape:window-height="1377"
     inkscape:window-x="-8"
     inkscape:window-y="32"
     inkscape:window-maximized="1"
     inkscape:current-layer="svg4" /><path
     d="M256,0c141.29,0 256,114.71 256,256c0,141.29 -114.71,256 -256,256c-141.29,0 -256,-114.71 -256,-256c0,-141.29 114.71,-256 256,-256Zm0,96c-43.453,0 -48.902,0.184 -65.968,0.963c-17.03,0.777 -28.661,3.482 -38.839,7.437c-10.521,4.089 -19.444,9.56 -28.339,18.455c-8.895,8.895 -14.366,17.818 -18.455,28.339c-3.955,10.177 -6.659,21.808 -7.437,38.838c-0.778,17.066 -0.962,22.515 -0.962,65.968c0,43.453 0.184,48.902 0.962,65.968c0.778,17.03 3.482,28.661 7.437,38.838c4.089,10.521 9.56,19.444 18.455,28.34c8.895,8.895 17.818,14.366 28.339,18.455c10.178,3.954 21.809,6.659 38.839,7.436c17.066,0.779 22.515,0.963 65.968,0.963c43.453,0 48.902,-0.184 65.968,-0.963c17.03,-0.777 28.661,-3.482 38.838,-7.436c10.521,-4.089 19.444,-9.56 28.34,-18.455c8.895,-8.896 14.366,-17.819 18.455,-28.34c3.954,-10.177 6.659,-21.808 7.436,-38.838c0.779,-17.066 0.963,-22.515 0.963,-65.968c0,-43.453 -0.184,-48.902 -0.963,-65.968c-0.777,-17.03 -3.482,-28.661 -7.436,-38.838c-4.089,-10.521 -9.56,-19.444 -18.455,-28.339c-8.896,-8.895 -17.819,-14.366 -28.34,-18.455c-10.177,-3.955 -21.808,-6.66 -38.838,-7.437c-17.066,-0.779 -22.515,-0.963 -65.968,-0.963Zm0,28.829c42.722,0 47.782,0.163 64.654,0.933c15.6,0.712 24.071,3.318 29.709,5.509c7.469,2.902 12.799,6.37 18.397,11.969c5.6,5.598 9.067,10.929 11.969,18.397c2.191,5.638 4.798,14.109 5.509,29.709c0.77,16.872 0.933,21.932 0.933,64.654c0,42.722 -0.163,47.782 -0.933,64.654c-0.711,15.6 -3.318,24.071 -5.509,29.709c-2.902,7.469 -6.369,12.799 -11.969,18.397c-5.598,5.6 -10.928,9.067 -18.397,11.969c-5.638,2.191 -14.109,4.798 -29.709,5.509c-16.869,0.77 -21.929,0.933 -64.654,0.933c-42.725,0 -47.784,-0.163 -64.654,-0.933c-15.6,-0.711 -24.071,-3.318 -29.709,-5.509c-7.469,-2.902 -12.799,-6.369 -18.398,-11.969c-5.599,-5.598 -9.066,-10.928 -11.968,-18.397c-2.191,-5.638 -4.798,-14.109 -5.51,-29.709c-0.77,-16.872 -0.932,-21.932 -0.932,-64.654c0,-42.722 0.162,-47.782 0.932,-64.654c0.712,-15.6 3.319,-24.071 5.51,-29.709c2.902,-7.468 6.369,-12.799 11.968,-18.397c5.599,-5.599 10.929,-9.067 18.398,-11.969c5.638,-2.191 14.109,-4.797 29.709,-5.509c16.872,-0.77 21.932,-0.933 64.654,-0.933Zm0,49.009c-45.377,0 -82.162,36.785 -82.162,82.162c0,45.377 36.785,82.162 82.162,82.162c45.377,0 82.162,-36.785 82.162,-82.162c0,-45.377 -36.785,-82.162 -82.162,-82.162Zm0,135.495c-29.455,0 -53.333,-23.878 -53.333,-53.333c0,-29.455 23.878,-53.333 53.333,-53.333c29.455,0 53.333,23.878 53.333,53.333c0,29.455 -23.878,53.333 -53.333,53.333Zm104.609,-138.741c0,10.604 -8.597,19.199 -19.201,19.199c-10.603,0 -19.199,-8.595 -19.199,-19.199c0,-10.604 8.596,-19.2 19.199,-19.2c10.604,0 19.201,8.596 19.201,19.2Z"
     id="path2" /><path
     style="fill:#ffffff;stroke:#ffffff;stroke-width:0.586483"
     d="M 244.56357,511.36854 C 195.84847,509.33827 146.67263,492.31159 107.3787,463.86953 53.671812,424.99497 17.857095,369.37887 5.0531356,304.9698 1.8822443,289.01894 0.57898063,274.83654 0.57002995,256.18367 0.56086286,237.07981 1.8005011,223.51066 5.0606925,207.02864 16.806637,147.64656 49.165973,94.221988 96.150615,56.64111 136.22044,24.591083 183.22246,5.7954125 234.8866,1.1618885 c 10.55185,-0.94634858 33.60773,-0.7890362 45.15922,0.3081257 49.67816,4.7184371 96.56307,23.7668548 135.7709,55.1610488 57.5838,46.108057 92.89884,115.819517 95.50159,188.518997 0.91832,25.65014 -1.27249,48.13511 -6.94339,71.26223 -18.03459,73.54894 -67.12126,134.84407 -135.04197,168.62857 -30.78168,15.31114 -66.7333,24.8306 -98.53162,26.08972 -4.26994,0.16908 -9.61095,0.38803 -11.86891,0.48656 -2.25796,0.0985 -8.72394,-0.0133 -14.36885,-0.2486 z m 63.04697,-95.55941 c 9.99954,-0.31683 20.82016,-0.85854 24.04582,-1.20382 24.20654,-2.59112 41.66345,-10.03097 56.14013,-23.92604 7.64589,-7.33871 12.6115,-14.0161 16.85171,-22.66094 5.40472,-11.01905 8.43455,-22.08771 9.95335,-36.36197 2.38577,-22.42222 2.38577,-128.8905 0,-151.31272 -1.5188,-14.27426 -4.54863,-25.34292 -9.95335,-36.36197 -4.24021,-8.64484 -9.20582,-15.32223 -16.85171,-22.66094 -14.40922,-13.83032 -32.18704,-21.409924 -56.14013,-23.93545 -22.23193,-2.344057 -129.08079,-2.344057 -151.31272,0 -23.95309,2.525526 -41.73091,10.10513 -56.14013,23.93545 -7.64589,7.33871 -12.6115,14.0161 -16.85171,22.66094 -5.40618,11.02203 -8.439054,22.10398 -9.951413,36.36197 -2.400148,22.62778 -2.400148,128.68494 0,151.31272 1.512359,14.25799 4.545233,25.33994 9.951413,36.36197 4.24021,8.64484 9.20582,15.32223 16.85171,22.66094 14.48181,13.89999 32.03128,21.35166 56.43337,23.96214 14.77221,1.5803 91.6402,2.28722 126.97366,1.16772 z"
     id="path862" /><path
     style="fill:#ffffff;stroke:#ffffff;stroke-width:0.586483"
     d="m 205.53703,386.44452 c -28.60946,-0.7514 -40.0404,-3.04175 -52.944,-10.60806 -4.29273,-2.51714 -13.91235,-12.13676 -16.42949,-16.4295 -4.88272,-8.32699 -7.6958,-17.03328 -9.19237,-28.44973 -2.6171,-19.96437 -2.6171,-129.95009 0,-149.91446 2.23552,-17.05346 6.94854,-27.58376 16.71819,-37.35341 9.77335,-9.77335 20.29864,-14.4825 37.3717,-16.72059 20.16248,-2.64307 129.7154,-2.64307 149.87788,0 17.07306,2.23809 27.59834,6.94724 37.3717,16.72059 9.76965,9.76965 14.48268,20.29995 16.71819,37.35341 2.61012,19.91114 2.61425,129.98227 0.006,149.86634 -2.2349,17.03536 -6.98833,27.66605 -16.72381,37.40153 -9.7395,9.7395 -20.36479,14.48873 -37.42143,16.72642 -13.62754,1.78782 -81.74817,2.55268 -125.35218,1.40746 z m 66.29802,-49.4907 c 29.31914,-6.11546 52.95062,-26.77529 62.10747,-54.29748 3.45789,-10.39317 4.14751,-14.82547 4.14751,-26.65634 0,-11.83087 -0.68962,-16.26317 -4.14751,-26.65634 -7.92434,-23.81771 -27.46847,-43.36184 -51.28618,-51.28617 -10.5759,-3.51869 -14.78898,-4.16129 -26.94958,-4.11051 -8.73311,0.0365 -11.93697,0.28531 -16.42154,1.27541 -16.09212,3.5528 -28.78088,10.33083 -40.45629,21.61073 -9.85233,9.51858 -16.41345,19.71987 -20.70264,32.18864 -3.40174,9.88894 -4.20855,15.05583 -4.21267,26.97824 -0.004,11.83211 0.68365,16.25616 4.14387,26.65634 7.75298,23.30267 26.8815,42.7314 50.15463,50.94176 4.71531,1.66348 13.98058,3.86484 18.69739,4.44236 4.51566,0.55289 20.38121,-0.13878 24.92554,-1.08664 z m 78.16894,-148.9099 c 6.77017,-3.45658 10.25156,-8.88447 10.58134,-16.49753 0.27505,-6.34991 -1.27426,-10.5432 -5.43139,-14.70033 -4.15713,-4.15713 -8.35042,-5.70644 -14.70033,-5.43138 -7.59523,0.329 -12.96121,3.76128 -16.54273,10.58133 -1.42801,2.71927 -1.62775,3.74594 -1.62989,8.37741 -0.003,6.2848 1.28065,9.69406 5.15142,13.68279 4.27266,4.40285 8.57442,6.04738 15.07389,5.76266 3.35843,-0.14713 5.1315,-0.56687 7.49769,-1.77495 z"
     id="path901" /><path
     style="fill:#ffffff;stroke:#ffffff;stroke-width:0.586483"
     d="m 247.10983,308.24948 c -17.53939,-3.35153 -31.30694,-13.87286 -38.8791,-29.71187 -3.75618,-7.85698 -4.88841,-12.97038 -4.92544,-22.24437 -0.0439,-10.98955 1.93322,-18.34819 7.4848,-27.85796 3.16273,-5.41771 12.22748,-14.48246 17.64519,-17.64519 9.36898,-5.46939 16.84948,-7.50649 27.56472,-7.50649 15.10527,0 26.50297,4.73598 37.2417,15.4747 7.60435,7.60436 11.87309,15.15006 14.48124,25.59799 1.50307,6.02113 1.33943,18.37399 -0.32518,24.54634 -2.57583,9.55114 -7.95599,18.71726 -14.8222,25.25241 -9.66254,9.19666 -21.4114,14.14073 -34.81611,14.65106 -4.04749,0.1541 -8.01564,-0.0533 -10.64962,-0.55662 z"
     id="path940" /></svg>
