<?xml version="1.0" encoding="UTF-8" standalone="no"?>
<svg
   enable-background="new 0 0 56.693 56.693"
   height="56.693px"
   id="Layer_1"
   version="1.1"
   viewBox="0 0 56.693 56.693"
   width="56.693px"
   xml:space="preserve"
   sodipodi:docname="twitter.svg"
   inkscape:version="1.1 (c68e22c387, 2021-05-23)"
   xmlns:inkscape="http://www.inkscape.org/namespaces/inkscape"
   xmlns:sodipodi="http://sodipodi.sourceforge.net/DTD/sodipodi-0.dtd"
   xmlns="http://www.w3.org/2000/svg"
   xmlns:svg="http://www.w3.org/2000/svg"><defs
     id="defs7" /><sodipodi:namedview
     id="namedview5"
     pagecolor="#ffffff"
     bordercolor="#999999"
     borderopacity="1"
     inkscape:pageshadow="0"
     inkscape:pageopacity="0"
     inkscape:pagecheckerboard="0"
     showgrid="false"
     inkscape:zoom="15.398726"
     inkscape:cx="28.3465"
     inkscape:cy="28.3465"
     inkscape:window-width="2560"
     inkscape:window-height="1377"
     inkscape:window-x="-8"
     inkscape:window-y="32"
     inkscape:window-maximized="1"
     inkscape:current-layer="Layer_1" /><path
     d="M28.348,5.157c-13.6,0-24.625,11.027-24.625,24.625c0,13.6,11.025,24.623,24.625,24.623c13.6,0,24.623-11.023,24.623-24.623  C52.971,16.184,41.947,5.157,28.348,5.157z M40.752,24.817c0.013,0.266,0.018,0.533,0.018,0.803c0,8.201-6.242,17.656-17.656,17.656  c-3.504,0-6.767-1.027-9.513-2.787c0.486,0.057,0.979,0.086,1.48,0.086c2.908,0,5.584-0.992,7.707-2.656  c-2.715-0.051-5.006-1.846-5.796-4.311c0.378,0.074,0.767,0.111,1.167,0.111c0.566,0,1.114-0.074,1.635-0.217  c-2.84-0.57-4.979-3.08-4.979-6.084c0-0.027,0-0.053,0.001-0.08c0.836,0.465,1.793,0.744,2.811,0.777  c-1.666-1.115-2.761-3.012-2.761-5.166c0-1.137,0.306-2.204,0.84-3.12c3.061,3.754,7.634,6.225,12.792,6.483  c-0.106-0.453-0.161-0.928-0.161-1.414c0-3.426,2.778-6.205,6.206-6.205c1.785,0,3.397,0.754,4.529,1.959  c1.414-0.277,2.742-0.795,3.941-1.506c-0.465,1.45-1.448,2.666-2.73,3.433c1.257-0.15,2.453-0.484,3.565-0.977  C43.018,22.849,41.965,23.942,40.752,24.817z"
     id="path2" /><path
     style="fill:#ffffff;stroke:#ffffff;stroke-width:0.0649404"
     d="m 26.625579,54.316961 c -0.125011,-0.01402 -0.548747,-0.05787 -0.941636,-0.09744 C 19.919098,53.638934 14.188414,50.741231 10.255594,46.418219 6.7407678,42.554674 4.657017,38.066961 3.9450516,32.82739 3.753175,31.415312 3.7387775,28.305566 3.9176914,26.917811 4.7748147,20.269489 7.9238905,14.650647 13.134275,10.472818 13.83249,9.9129695 15.483768,8.8054699 16.346802,8.3182006 c 2.798747,-1.5801749 6.012552,-2.600721 9.467021,-3.0062596 1.096221,-0.1286912 4.191543,-0.108332 5.357586,0.035239 7.234705,0.8907851 13.586286,4.773558 17.598405,10.758048 2.175691,3.245267 3.489553,6.792558 4.004814,10.812583 0.145557,1.135626 0.165681,4.350945 0.03414,5.454996 -0.631713,5.302138 -2.654716,9.850293 -6.123677,13.767373 -3.935447,4.443825 -9.331307,7.269935 -15.383801,8.057343 -0.764808,0.0995 -4.095166,0.184571 -4.675711,0.119438 z m -2.0099,-11.071 c 4.270087,-0.338844 7.991213,-2.015039 10.874432,-4.898428 3.299637,-3.299832 5.29201,-8.042958 5.292404,-12.599318 l 6.5e-5,-0.909834 0.438348,-0.33515 c 0.806084,-0.61631 2.304688,-2.235472 2.627809,-2.839207 0.05662,-0.1058 0.04873,-0.11622 -0.05511,-0.07273 -0.911453,0.381782 -2.659253,0.879218 -3.075977,0.875447 l -0.162351,-0.0015 0.194822,-0.141445 c 0.375625,-0.272714 1.153325,-1.059596 1.433211,-1.450133 0.262708,-0.366567 0.745403,-1.306011 0.837689,-1.630347 0.03529,-0.124033 -0.06167,-0.09073 -0.790636,0.27152 -0.885487,0.440036 -1.816723,0.785863 -2.627797,0.975868 l -0.498128,0.116693 -0.346098,-0.311349 c -1.353669,-1.217767 -3.095935,-1.787293 -4.870299,-1.592046 -3.310762,0.364308 -5.710783,3.157197 -5.551619,6.46038 0.02065,0.428607 0.05592,0.855612 0.07836,0.948901 0.04068,0.169072 0.0397,0.16953 -0.305981,0.142743 -4.691612,-0.36356 -9.027965,-2.564301 -12.120734,-6.151389 -0.262064,-0.303951 -0.279567,-0.313196 -0.368791,-0.194821 -0.168664,0.223765 -0.540363,1.224525 -0.650491,1.751378 -0.127991,0.612309 -0.146614,1.841867 -0.03634,2.399201 0.274902,1.389359 0.877415,2.476674 1.91845,3.4621 0.630123,0.596465 0.62232,0.612812 -0.209047,0.437929 -0.536936,-0.112949 -0.975219,-0.256563 -1.419612,-0.465173 -0.182032,-0.08545 -0.35436,-0.155364 -0.382949,-0.155364 -0.09009,0 0.01889,1.179824 0.156571,1.694929 0.535013,2.001702 2.04539,3.618708 3.987617,4.269131 0.315089,0.10552 0.544752,0.209244 0.510363,0.230497 -0.03439,0.02126 -0.356994,0.07213 -0.716897,0.113054 -0.487511,0.05544 -0.798633,0.05579 -1.220133,0.0014 -0.31117,-0.04017 -0.577157,-0.06164 -0.591082,-0.04772 -0.06359,0.06359 0.432984,1.092713 0.771315,1.598522 1.004347,1.501515 2.706704,2.532649 4.473732,2.709781 l 0.480674,0.04818 -0.581861,0.398182 c -2.20628,1.509815 -4.612086,2.214319 -7.357204,2.154448 -1.32802,-0.02896 -1.29901,-0.0508 -0.530456,0.399246 3.087982,1.808238 6.73066,2.627074 10.393723,2.3364 z"
     id="path861" /></svg>
