<?xml version="1.0" encoding="UTF-8" standalone="no"?>
<svg
   height="100%"
   style="fill-rule:evenodd;clip-rule:evenodd;stroke-linejoin:round;stroke-miterlimit:2;"
   version="1.1"
   viewBox="0 0 512 512"
   width="100%"
   xml:space="preserve"
   id="svg4"
   sodipodi:docname="youtube.svg"
   inkscape:version="1.1 (c68e22c387, 2021-05-23)"
   xmlns:inkscape="http://www.inkscape.org/namespaces/inkscape"
   xmlns:sodipodi="http://sodipodi.sourceforge.net/DTD/sodipodi-0.dtd"
   xmlns="http://www.w3.org/2000/svg"
   xmlns:svg="http://www.w3.org/2000/svg"><defs
     id="defs8" /><sodipodi:namedview
     id="namedview6"
     pagecolor="#ffffff"
     bordercolor="#999999"
     borderopacity="1"
     inkscape:pageshadow="0"
     inkscape:pageopacity="0"
     inkscape:pagecheckerboard="0"
     showgrid="false"
     inkscape:zoom="1.7050781"
     inkscape:cx="256"
     inkscape:cy="256"
     inkscape:window-width="2560"
     inkscape:window-height="1377"
     inkscape:window-x="-8"
     inkscape:window-y="32"
     inkscape:window-maximized="1"
     inkscape:current-layer="svg4" /><path
     d="M256,0c141.29,0 256,114.71 256,256c0,141.29 -114.71,256 -256,256c-141.29,0 -256,-114.71 -256,-256c0,-141.29 114.71,-256 256,-256Zm153.315,178.978c-3.68,-13.769 -14.522,-24.61 -28.29,-28.29c-24.958,-6.688 -125.025,-6.688 -125.025,-6.688c0,0 -100.067,0 -125.025,6.688c-13.765,3.68 -24.61,14.521 -28.29,28.29c-6.685,24.955 -6.685,77.024 -6.685,77.024c0,0 0,52.067 6.685,77.02c3.68,13.769 14.525,24.614 28.29,28.293c24.958,6.685 125.025,6.685 125.025,6.685c0,0 100.067,0 125.025,-6.685c13.768,-3.679 24.61,-14.524 28.29,-28.293c6.685,-24.953 6.685,-77.02 6.685,-77.02c0,0 0,-52.069 -6.685,-77.024Zm-185.316,125.025l0,-96.002l83.137,48.001l-83.137,48.001Z"
     id="path2" /><path
     style="fill:#ffffff;stroke:#ffffff;stroke-width:0.586483"
     d="M 244.56357,511.36854 C 195.84847,509.33827 146.67263,492.31159 107.3787,463.86953 53.671812,424.99497 17.857095,369.37887 5.0531356,304.9698 1.8822443,289.01894 0.57898063,274.83654 0.57002995,256.18367 0.56086286,237.07981 1.8005011,223.51066 5.0606925,207.02864 16.806637,147.64656 49.165973,94.221988 96.150615,56.64111 136.22044,24.591083 183.22246,5.7954125 234.8866,1.1618885 c 10.55185,-0.94634858 33.60773,-0.7890362 45.15922,0.3081257 49.67816,4.7184371 96.56307,23.7668548 135.7709,55.1610488 57.5838,46.108057 92.89884,115.819517 95.50159,188.518997 0.91832,25.65014 -1.27249,48.13511 -6.94339,71.26223 -18.03459,73.54894 -67.12126,134.84407 -135.04197,168.62857 -30.78168,15.31114 -66.7333,24.8306 -98.53162,26.08972 -4.26994,0.16908 -9.61095,0.38803 -11.86891,0.48656 -2.25796,0.0985 -8.72394,-0.0133 -14.36885,-0.2486 z m 52.49027,-143.64568 c 46.99338,-1.17003 74.05704,-3.24135 85.04009,-6.50855 9.62254,-2.86249 18.4327,-9.70804 23.32772,-18.1258 5.13766,-8.83499 7.86069,-23.94837 9.8793,-54.83192 1.50059,-22.95812 0.79408,-60.7595 -1.56746,-83.86713 -2.58008,-25.24593 -5.72674,-34.44348 -14.97672,-43.77622 -3.64329,-3.67588 -5.45178,-4.97086 -9.97022,-7.13922 -6.16126,-2.95674 -10.32543,-4.00798 -21.06146,-5.31692 -27.99031,-3.41259 -90.96469,-5.13932 -145.05845,-3.97746 -55.13408,1.18421 -81.80299,3.13026 -93.44479,6.81874 -11.47082,3.63431 -21.31098,12.76564 -25.42718,23.59557 -7.841841,20.63227 -10.457299,94.11003 -4.933083,138.58818 1.162763,9.36195 3.307803,19.86632 4.946653,24.22392 1.79225,4.76549 6.48294,11.54746 10.43676,15.08985 6.56903,5.88545 14.11768,9.08766 25.34085,10.74984 26.45242,3.91766 98.10953,5.95501 157.46799,4.47712 z"
     id="path862" /><path
     style="fill:#ffffff;stroke:#ffffff;stroke-width:0.586483"
     d="m 224.03666,256 c 0,-25.96655 0.13692,-47.21191 0.30428,-47.21191 0.37358,0 80.73588,46.31328 81.3957,46.90884 0.38942,0.3515 -80.39466,47.51498 -81.38616,47.51498 -0.1726,0 -0.31382,-21.24536 -0.31382,-47.21191 z"
     id="path901" /></svg>
